<?xml version="1.0" encoding="utf-8"?>
<svg version="1.1" id="Icons" xmlns="http://www.w3.org/2000/svg" xmlns:xlink="http://www.w3.org/1999/xlink" x="0px" y="0px"
	 viewBox="0 0 32 32" style="enable-background:new 0 0 32 32;" xml:space="preserve">
  <style type="text/css">
    <![CDATA[
    .blink { animation: attention 1.5s steps(1) infinite }
    @keyframes attention {
      0%  {opacity: 0;}
      50%  {opacity: 1;}
     100%  {opacity: 0;}
    .noblink { opacity: 1; }
    ]]>
  </style>
<polygon class="noblink" points="16,9 24.5,18 29,18 16,4 3,18 7.5,18" fill="#62717b"/>
<path class="noblink" d="M16,24L16,24c-1.7,0-3-1.3-3-3v-3h6v3C19,22.7,17.7,24,16,24z" fill="#62717b"/>
<line class="noblink" x1="14" y1="15" x2="14" y2="18" fill="#62717b"/>
<line class="noblink" x1="18" y1="15" x2="18" y2="18" fill="#62717b"/>
<path class="noblink" d="M16,25L16,25c0,1.7,1.3,3,3,3h0" fill="#62717b"/>
<polyline class="noblink" points="14,28 7,28 7,18 " fill="#62717b"/>
<polyline class="noblink" points="25,18 25,28 19,28 " fill="#62717b"/>
</svg>
