<?xml version="1.0" encoding="UTF-8" standalone="no"?>
<svg xmlns="http://www.w3.org/2000/svg" viewBox="0 0 512 512">
  <style type="text/css">
    <![CDATA[
    .blink { animation: attention 1.5s steps(1) infinite }
    @keyframes attention {
      0%  {opacity: 0;}
      50%  {opacity: 1;}
     100%  {opacity: 0;}
    .noblink { opacity: 1; }
    ]]>
  </style>
  <g>
    <path class="noblink" d="M256.0012,140.9994a115,115,0,1,0,115,115A114.9994,114.9994,0,0,0,256.0012,140.9994Zm43.2312,120.3668-32.5,65a11.9992,11.9992,0,1,1-21.4648-10.7324l23.8183-47.6318H223.5a11.9993,11.9993,0,0,1-10.7324-17.3682l32.5-65a11.9992,11.9992,0,0,1,21.4648,10.7324L242.9141,243.998H288.5a11.9993,11.9993,0,0,1,10.7324,17.3682Z" fill="#62717b"/>
    <path class="noblink" d="M256,116a10,10,0,0,0,10-10V66a10,10,0,0,0-20,0v40A10,10,0,0,0,256,116Z" fill="#62717b"/>
    <path class="noblink" d="M142.8652,157.0059a9.999,9.999,0,0,0,14.1407-14.1407L138.72,124.5791A9.9989,9.9989,0,1,0,124.5791,138.72Z" fill="#62717b"/>
    <path class="noblink" d="M142.8652,354.9941,124.5791,373.28A9.9989,9.9989,0,1,0,138.72,387.4209l18.2862-18.2861a9.999,9.999,0,1,0-14.1407-14.1407Z" fill="#62717b"/>
    <path class="noblink" d="M369.1348,354.9941a9.999,9.999,0,1,0-14.1407,14.1407L373.28,387.4209A9.9989,9.9989,0,0,0,387.4209,373.28Z" fill="#62717b"/>
    <path class="noblink" d="M373.28,124.5791l-18.2862,18.2861a9.999,9.999,0,1,0,14.1407,14.1407L387.4209,138.72A9.9989,9.9989,0,0,0,373.28,124.5791Z" fill="#62717b"/>
    <path class="noblink" d="M256,396a10,10,0,0,0-10,10v40a10,10,0,0,0,20,0V406A10,10,0,0,0,256,396Z" fill="#62717b"/>
    <path class="noblink" d="M446,246H406a10,10,0,0,0,0,20h40a10,10,0,0,0,0-20Z" fill="#62717b"/>
    <path class="noblink" d="M106,246H66a10,10,0,0,0,0,20h40a10,10,0,0,0,0-20Z" fill="#62717b"/>
  </g>
</svg>
