<?xml version="1.0" encoding="utf-8"?>
<svg version="1.1" id="Layer_1" xmlns="http://www.w3.org/2000/svg" xmlns:xlink="http://www.w3.org/1999/xlink" x="0px" y="0px" viewBox="0 0 121.97 122.88" style="enable-background:new 0 0 121.97 122.88" xml:space="preserve">
  <style type="text/css">
    <![CDATA[
    .blink { animation: attention 1.5s steps(1) infinite }
    @keyframes attention {
      0%  {opacity: 0;}
      50%  {opacity: 1;}
     100%  {opacity: 0;}
    .noblink { opacity: 1; }
    ]]>
  </style>
  <g>
    <path class="noblink" d="M33.78,16.67c-0.89-0.51-1.19-1.64-0.68-2.53c0.51-0.89,1.64-1.19,2.53-0.68l4.13,2.38c0.89,0.51,1.19,1.64,0.68,2.53 c-0.51,0.89-1.64,1.19-2.53,0.68L33.78,16.67L33.78,16.67L33.78,16.67z M71.99,41.8l0.88,8.85h16.5l-1.62-8.85H71.99L71.99,41.8z M92.06,41.8l1.62,8.85h12.92l-2.44-8.85H92.06L92.06,41.8z M107.77,54.91H94.46l1.25,6.85h13.95L107.77,54.91L107.77,54.91z M110.84,66.04H96.5l1.25,6.85h14.97L110.84,66.04L110.84,66.04z M113.9,77.15H98.53l2.34,12.79h16.55L113.9,77.15L113.9,77.15z M96.55,89.94l-2.34-12.79H75.49l1.27,12.79H96.55L96.55,89.94z M72.48,89.94l-1.27-12.79H48.07l-1.75,12.79H72.48L72.48,89.94z M42.04,89.94l1.75-12.79H26.11l-2.97,12.79H42.04L42.04,89.94z M18.78,89.94l2.97-12.79H8.07L4.55,89.94H18.78L18.78,89.94z M9.25,72.89h13.49l1.59-6.85H11.13L9.25,72.89L9.25,72.89z M12.31,61.76h13l1.59-6.85H14.2L12.31,61.76L12.31,61.76z M15.37,50.65 h12.52l2.06-8.85H17.81L15.37,50.65L15.37,50.65z M34.31,41.8l-2.06,8.85H47.4l1.21-8.85H34.31L34.31,41.8z M52.88,41.8 c0,0.08-0.01,0.15-0.02,0.23l-1.18,8.62H68.6l-0.88-8.85H52.88L52.88,41.8z M118.36,94.2H65.48v19.69h16.29v8.99H40.2v-8.99h16.29 V94.2H3.61c-0.31,0-0.64-0.05-0.97-0.14c-0.65-0.18-1.26-0.53-1.71-1C0.36,92.47,0,91.71,0,90.85c0-0.25,0.04-0.52,0.12-0.8l0,0 l13.63-49.49c0.21-0.75,0.56-1.48,1.11-2.03c0.61-0.61,1.4-0.99,2.39-0.99h26.52c-1.52-2.51-2.4-5.45-2.4-8.6 c0-4.58,1.86-8.73,4.86-11.74c3-3,7.15-4.86,11.74-4.86s8.73,1.86,11.74,4.86c3,3,4.86,7.15,4.86,11.74c0,3.15-0.88,6.09-2.4,8.6 h32.56c0.9,0,1.63,0.32,2.21,0.84c0.06,0.05,0.12,0.1,0.17,0.15c0.55,0.55,0.9,1.28,1.11,2.03l13.64,49.5 c0.08,0.29,0.12,0.55,0.12,0.79c0,0.86-0.36,1.62-0.93,2.2c-0.45,0.47-1.07,0.82-1.71,1C119,94.15,118.67,94.2,118.36,94.2 L118.36,94.2z M73.28,54.91l0.68,6.85H91.4l-1.25-6.85H73.28L73.28,54.91z M31.27,54.91l-1.59,6.85h16.2l0.93-6.85H31.27 L31.27,54.91z M51.1,54.91l-0.93,6.85H69.7l-0.68-6.85H51.1L51.1,54.91z M74.39,66.04l0.68,6.85h18.37l-1.25-6.85H74.39 L74.39,66.04z M28.69,66.04l-1.59,6.85h17.27l0.93-6.85H28.69L28.69,66.04z M49.58,66.04l-0.93,6.85H70.8l-0.68-6.85H49.58 L49.58,66.04z M43.15,6.23c-0.51-0.89-0.21-2.02,0.68-2.53c0.89-0.51,2.02-0.21,2.53,0.68l2.38,4.12c0.51,0.89,0.21,2.02-0.67,2.53 c-0.89,0.51-2.02,0.21-2.53-0.68L43.15,6.23L43.15,6.23z M56.48,1.86c0-1.03,0.83-1.86,1.86-1.86c1.03,0,1.86,0.83,1.86,1.86v4.76 c0,1.03-0.83,1.86-1.86,1.86c-1.03,0-1.86-0.83-1.86-1.86V1.86L56.48,1.86z M70.23,4.76c0.51-0.89,1.64-1.19,2.53-0.68 c0.89,0.51,1.19,1.64,0.68,2.53l-2.38,4.13c-0.51,0.89-1.64,1.19-2.53,0.68c-0.89-0.51-1.19-1.64-0.68-2.53L70.23,4.76L70.23,4.76 L70.23,4.76z M80.67,14.13c0.89-0.51,2.02-0.21,2.53,0.68c0.51,0.89,0.21,2.02-0.68,2.53l-4.12,2.38 c-0.89,0.51-2.02,0.21-2.53-0.67c-0.51-0.89-0.21-2.02,0.68-2.53L80.67,14.13L80.67,14.13z M85.04,27.46 c1.03,0,1.86,0.83,1.86,1.86c0,1.03-0.83,1.86-1.86,1.86h-4.76c-1.03,0-1.86-0.83-1.86-1.86c0-1.03,0.83-1.86,1.86-1.86H85.04 L85.04,27.46z M30.88,30.42c-1.03,0-1.86-0.83-1.86-1.86c0-1.03,0.83-1.86,1.86-1.86h4.76c1.03,0,1.86,0.83,1.86,1.86 c0,1.03-0.83,1.86-1.86,1.86H30.88L30.88,30.42z"/>
  </g>
</svg>
