<?xml version="1.0" encoding="iso-8859-1"?>
<!-- Generator: Adobe Illustrator 19.0.0, SVG Export Plug-In . SVG Version: 6.00 Build 0)  -->
<svg version="1.1" id="Capa_1" xmlns="http://www.w3.org/2000/svg" xmlns:xlink="http://www.w3.org/1999/xlink" x="0px" y="0px"
	 viewBox="0 0 508.189 508.189" style="enable-background:new 0 0 508.189 508.189;" xml:space="preserve">
  <style type="text/css">
    <![CDATA[
    .blink { animation: attention 1.5s steps(1) infinite }
    @keyframes attention {
      0%  {opacity: 0;}
      50%  {opacity: 1;}
     100%  {opacity: 0;}
    .noblink { opacity: 1; }
    ]]>
  </style>
<g>
	<g>
		<path class="noblink" d="M407.873,368.702c-1.024-2.56-4.096-4.096-6.656-3.072l-29.696,10.752l-39.936-109.568
			c22.016-14.848,22.016-70.656-0.512-133.12c-7.168-18.944-26.112-65.536-35.84-82.432c-1.024-2.048-4.096-3.072-6.144-2.048
			L214.337,76.35c-2.56,1.024-3.584,3.072-3.072,5.632c3.584,19.456,18.944,67.584,25.6,86.528
			c11.264,30.72,26.624,58.368,42.496,77.312c14.336,16.384,28.16,25.088,39.936,25.088c1.024,0,2.048,0,2.56,0l39.936,109.568
			l-31.232,10.752c-2.56,1.024-4.096,4.096-3.072,6.656c0.512,2.048,2.56,3.584,4.608,3.584c0.512,0,1.024,0,1.536-0.512
			l70.656-25.6C407.361,374.334,408.897,371.262,407.873,368.702z M222.017,84.542l66.56-24.064
			c8.704,16.384,22.528,49.152,29.696,68.608c-2.56,3.072-5.632,6.144-11.776,8.192c-8.704,3.072-14.848,1.536-21.504-1.024
			c-7.68-2.56-15.872-5.12-28.16-0.512c-8.192,2.56-12.8,7.168-16.384,11.776C233.793,127.55,225.089,99.902,222.017,84.542z
			 M323.393,259.646c-9.216,3.072-22.528-4.096-36.352-20.992c-15.36-17.92-29.696-44.544-40.96-74.24
			c-0.512-1.536-1.024-3.072-2.048-5.12c4.096-6.144,7.168-11.264,15.872-14.336c8.704-3.072,14.848-1.536,21.504,1.024
			c7.68,2.56,15.872,5.12,28.16,0.512c5.12-2.048,9.216-4.608,11.776-7.168C344.897,202.302,341.313,252.99,323.393,259.646z" fill="#ff9c27"/>
	</g>
</g>
<g>
	<g>
		<path class="noblink" d="M193.857,75.838l-74.752-27.136c-2.56-1.024-5.12,0-6.144,2.048c-10.24,17.408-29.184,63.488-35.84,82.432
			c-22.528,62.464-22.528,118.272-0.512,133.12L36.673,375.87L6.977,365.118c-2.56-1.024-5.632,0.512-6.656,3.072
			c-1.024,2.56,0.512,5.632,3.072,6.656l71.168,26.112c0.512,0,1.024,0.512,1.536,0.512c2.048,0,4.096-1.536,4.608-3.584
			c1.024-2.56-0.512-5.632-3.072-6.656l-31.232-11.264l39.936-109.568c1.024,0,2.048,0,2.56,0c11.776,0,25.6-8.704,39.936-25.088
			c16.384-18.944,31.232-46.592,42.496-77.312c7.168-18.944,22.016-66.56,25.6-86.528C197.953,79.422,196.417,76.862,193.857,75.838
			z M162.113,164.414c-10.752,29.696-25.088,56.32-40.96,74.24c-14.336,16.384-27.648,24.064-36.352,20.992
			c-17.408-6.144-20.992-57.344,1.024-119.808c3.072,2.56,6.656,5.12,11.776,7.168c12.288,4.608,20.48,1.536,28.16-0.512
			c6.656-2.048,12.8-4.096,21.504-1.024c8.704,3.072,12.288,8.192,15.872,14.336C163.137,161.342,162.625,162.878,162.113,164.414z
			 M167.745,147.518c-3.584-4.608-8.192-9.216-16.384-12.288c-12.288-4.608-20.48-1.536-28.16,0.512
			c-6.656,2.048-12.8,4.096-21.504,1.024c-5.632-2.048-9.216-5.12-11.776-8.192c7.68-19.968,20.992-52.224,29.696-68.608
			l66.56,24.064C183.105,99.902,174.913,127.038,167.745,147.518z" fill="#ff9c27"/>
	</g>
</g>
<g>
	<g>
		<path class="noblink" d="M203.073,6.718c-3.072,0-5.12,2.048-5.12,5.12l-0.512,26.624c0,3.072,2.048,5.12,5.12,5.12c2.56,0,5.12-2.048,5.12-5.12
			l0.512-26.624C208.193,9.278,206.145,6.718,203.073,6.718z" fill="#ff9c27"/>
	</g>
</g>
<g>
	<g>
		<path class="noblink" d="M249.665,13.374c-2.048-1.536-5.632-0.512-7.168,1.536l-13.824,23.04c-1.536,3.072-1.024,6.144,1.536,7.68
			c1.024,0.512,1.536,0.512,2.56,0.512c1.536,0,3.584-1.024,4.608-2.56l13.824-23.04C252.737,17.982,251.713,14.91,249.665,13.374z" fill="#ff9c27"
			/>
	</g>
</g>
<g>
	<g>
		<path class="noblink" d="M176.961,38.462l-14.336-23.04c-1.536-2.56-4.608-3.072-7.168-1.536s-3.072,4.608-1.536,7.168l14.848,23.04
			c1.024,1.536,2.56,2.56,4.096,2.56c1.024,0,2.048,0,2.56-1.024C177.985,44.094,178.497,41.022,176.961,38.462z" fill="#ff9c27"/>
	</g>
</g>
</svg>
