<svg id="Layer_1" enable-background="new -150 -150 811.805 811.805" height="512" viewBox="-150 -150 811.805 811.805" width="512" xmlns="http://www.w3.org/2000/svg">
  <style type="text/css">
    <![CDATA[
    .blink { animation: attention 1.5s steps(1) infinite }
    @keyframes attention {
      0%  {opacity: 0;}
      50%  {opacity: 1;}
     100%  {opacity: 0;}
    .noblink { opacity: 1; }
    ]]>
  </style>
  <g>
    <path class="blink" d="m218.3 133.026c-7.04-9.11-13.171-16.409-18.224-21.694-7.182-7.512-13.125-12.168-20.55-12.168s-13.368 4.656-20.55 12.167c-5.053 5.285-11.185 12.584-18.224 21.695-14.86 19.23-31.528 43.594-46.934 68.601-24.292 39.432-65.043 112.577-65.043 159.428 0 83.124 67.626 150.75 150.75 150.75s150.75-67.626 150.75-150.75c0-46.85-40.751-119.996-65.043-159.428-15.405-25.007-32.073-49.37-46.932-68.601zm-38.774 348.779c-66.582 0-120.75-54.168-120.75-120.75 0-27.47 20.462-77.186 56.14-136.397 26.795-44.469 52.544-78.315 64.61-91.438 12.065 13.122 37.815 46.968 64.61 91.438 35.678 59.212 56.14 108.927 56.14 136.397 0 66.582-54.169 120.75-120.75 120.75z" fill="#3B97D3"/>
    <path class="blink" d="m447.426 57.784c-8.311-13.491-17.317-26.653-25.359-37.061-12.422-16.075-18.291-20.723-26.165-20.723s-13.743 4.648-26.164 20.723c-8.042 10.408-17.048 23.569-25.359 37.061-16.242 26.365-35.603 63.103-35.603 88.395 0 48.042 39.085 87.126 87.126 87.126 48.042 0 87.127-39.085 87.127-87.126 0-25.293-19.361-62.03-35.603-88.395zm-51.524 145.521c-31.5 0-57.126-25.627-57.126-57.126 0-12.89 10.432-38.055 27.906-67.319 11.112-18.61 22.066-33.947 29.221-42.897 7.155 8.951 18.109 24.288 29.221 42.897 17.474 29.264 27.906 54.429 27.906 67.319-.001 31.499-25.628 57.126-57.128 57.126z" fill="#3B97D3"/>
  </g>
</svg>
