<?xml version="1.0" encoding="iso-8859-1"?>
<!-- Generator: Adobe Illustrator 19.0.0, SVG Export Plug-In . SVG Version: 6.00 Build 0)  -->
<svg version="1.1" id="Capa_1" xmlns="http://www.w3.org/2000/svg" xmlns:xlink="http://www.w3.org/1999/xlink" x="0px" y="0px"
	 viewBox="0 0 512 512" style="enable-background:new 0 0 512 512;" xml:space="preserve">
  <style type="text/css">
    <![CDATA[
    .blink { animation: attention 1.5s steps(1) infinite }
    @keyframes attention {
      0%  {opacity: 0;}
      50%  {opacity: 1;}
     100%  {opacity: 0;}
    .noblink { opacity: 1; }
    ]]>
  </style>
<g>
	<g>
		<path class="blink" d="M435.2,0H76.8C62.661,0,51.2,11.461,51.2,25.6v460.8c0,14.138,11.461,25.6,25.6,25.6h358.4
			c14.138,0,25.6-11.461,25.6-25.6V25.6C460.8,11.461,449.338,0,435.2,0z M443.733,486.4c0,4.713-3.82,8.533-8.533,8.533H76.8
			c-4.713,0-8.533-3.82-8.533-8.533V25.6c0-4.713,3.82-8.533,8.533-8.533h358.4c4.713,0,8.533,3.82,8.533,8.533V486.4z" fill="#ff9c27"/>
	</g>
</g>
<g>
	<g>
		<path class="blink" d="M452.267,34.133H59.733c-4.713,0-8.533,3.82-8.533,8.533s3.82,8.533,8.533,8.533h392.533c4.713,0,8.533-3.82,8.533-8.533
			S456.979,34.133,452.267,34.133z" fill="#ff9c27"/>
	</g>
</g>
<g>
	<g>
		<path class="blink" d="M452.267,153.6H59.733c-4.713,0-8.533,3.82-8.533,8.533s3.82,8.533,8.533,8.533h392.533c4.713,0,8.533-3.82,8.533-8.533
			S456.979,153.6,452.267,153.6z" fill="#ff9c27"/>
	</g>
</g>
<g>
	<g>
		<path class="blink" d="M256,187.733c-70.692,0-128,57.308-128,128s57.308,128,128,128s128-57.308,128-128S326.692,187.733,256,187.733z
			 M256,426.667c-61.267,0-110.933-49.667-110.933-110.933S194.733,204.8,256,204.8s110.933,49.667,110.933,110.933
			S317.267,426.667,256,426.667z" fill="#ff9c27"/>
	</g>
</g>
<g>
	<g>
		<path class="blink" d="M256,221.867c-51.841,0-93.867,42.026-93.867,93.867S204.159,409.6,256,409.6s93.867-42.026,93.867-93.867
			S307.841,221.867,256,221.867z M256,392.533c-42.415,0-76.8-34.385-76.8-76.8c0-42.415,34.385-76.8,76.8-76.8
			c42.415,0,76.8,34.385,76.8,76.8C332.8,358.148,298.415,392.533,256,392.533z" fill="#ff9c27"/>
	</g>
</g>
<g>
	<g>
		<path class="blink" d="M128,460.8H93.867c-4.713,0-8.533,3.82-8.533,8.533c0,4.713,3.82,8.533,8.533,8.533H128c4.713,0,8.533-3.82,8.533-8.533
			C136.533,464.62,132.713,460.8,128,460.8z" fill="#ff9c27"/>
	</g>
</g>
<g>
	<g>
		<path class="blink" d="M204.8,460.8h-42.667c-4.713,0-8.533,3.82-8.533,8.533c0,4.713,3.82,8.533,8.533,8.533H204.8
			c4.713,0,8.533-3.82,8.533-8.533C213.333,464.62,209.513,460.8,204.8,460.8z" fill="#ff9c27"/>
	</g>
</g>
<g>
	<g>
		<path class="blink" d="M281.6,460.8h-42.667c-4.713,0-8.533,3.82-8.533,8.533c0,4.713,3.82,8.533,8.533,8.533H281.6
			c4.713,0,8.533-3.82,8.533-8.533C290.133,464.62,286.313,460.8,281.6,460.8z" fill="#ff9c27"/>
	</g>
</g>
<g>
	<g>
		<path class="blink" d="M349.867,460.8h-34.133c-4.713,0-8.533,3.82-8.533,8.533c0,4.713,3.82,8.533,8.533,8.533h34.133
			c4.713,0,8.533-3.82,8.533-8.533C358.4,464.62,354.579,460.8,349.867,460.8z" fill="#ff9c27"/>
	</g>
</g>
<g>
	<g>
		<path class="blink" d="M418.133,460.8H384c-4.713,0-8.533,3.82-8.533,8.533c0,4.713,3.82,8.533,8.533,8.533h34.133
			c4.713,0,8.533-3.82,8.533-8.533C426.666,464.62,422.846,460.8,418.133,460.8z" fill="#ff9c27"/>
	</g>
</g>
<g>
	<g>
		<path class="blink" d="M392.533,68.267c-18.851,0-34.133,15.282-34.133,34.133c0,18.851,15.282,34.133,34.133,34.133
			s34.133-15.282,34.133-34.133C426.666,83.549,411.385,68.267,392.533,68.267z M392.533,119.467
			c-9.426,0-17.067-7.641-17.067-17.067c0-9.426,7.641-17.067,17.067-17.067c9.426,0,17.067,7.641,17.067,17.067
			C409.6,111.826,401.959,119.467,392.533,119.467z" fill="#ff9c27"/>
	</g>
</g>
<g>
	<g>
		<path class="blink" d="M238.933,85.333c-4.713,0-8.533,3.82-8.533,8.533v17.067c0,4.713,3.82,8.533,8.533,8.533c4.713,0,8.533-3.82,8.533-8.533
			V93.867C247.467,89.154,243.646,85.333,238.933,85.333z" fill="#ff9c27"/>
	</g>
</g>
<g>
	<g>
		<path class="blink" d="M273.067,85.333c-4.713,0-8.533,3.82-8.533,8.533v17.067c0,4.713,3.821,8.533,8.533,8.533c4.713,0,8.533-3.82,8.533-8.533
			V93.867C281.6,89.154,277.779,85.333,273.067,85.333z" fill="#ff9c27"/>
	</g>
</g>
</svg>
