<?xml version="1.0" encoding="iso-8859-1"?>
<!-- Generator: Adobe Illustrator 19.0.0, SVG Export Plug-In . SVG Version: 6.00 Build 0)  -->
<svg version="1.1" id="Capa_1" xmlns="http://www.w3.org/2000/svg" xmlns:xlink="http://www.w3.org/1999/xlink" x="0px" y="0px"
	 viewBox="-150 -150 812 812" style="enable-background:new -150 -150 812 812;" xml:space="preserve">
  <style type="text/css">
    <![CDATA[
    .blink { animation: attention 1.5s steps(1) infinite }
    @keyframes attention {
      0%  {opacity: 0;}
      50%  {opacity: 1;}
     100%  {opacity: 0;}
    .noblink { opacity: 1; }
    ]]>
  </style>
<g>
	<g>
		<path class="blink" d="M435.2,0H76.8C62.661,0,51.2,11.461,51.2,25.6v460.8c0,14.138,11.461,25.6,25.6,25.6h358.4
			c14.138,0,25.6-11.461,25.6-25.6V25.6C460.8,11.461,449.338,0,435.2,0z M443.733,486.4c0,4.713-3.82,8.533-8.533,8.533H76.8
			c-4.713,0-8.533-3.82-8.533-8.533V25.6c0-4.713,3.82-8.533,8.533-8.533h358.4c4.713,0,8.533,3.82,8.533,8.533V486.4z" fill="#ff9c27"/>
	</g>
</g>
<g>
	<g>
		<path class="blink" d="M452.267,119.467H59.733c-4.713,0-8.533,3.82-8.533,8.533s3.82,8.533,8.533,8.533h392.533c4.713,0,8.533-3.82,8.533-8.533
			S456.979,119.467,452.267,119.467z" fill="#ff9c27"/>
	</g>
</g>
<g>
	<g>
		<path class="blink" d="M256,162.133c-80.118,0-145.067,64.949-145.067,145.067S175.882,452.267,256,452.267S401.067,387.318,401.067,307.2
			S336.118,162.133,256,162.133z M256,435.2c-70.692,0-128-57.308-128-128s57.308-128,128-128s128,57.308,128,128
			S326.692,435.2,256,435.2z" fill="#ff9c27"/>
	</g>
</g>
<g>
	<g>
		<path class="blink" d="M352.512,332.8h-28.245v-51.2h28.245c0.947-0.004,1.888-0.165,2.782-0.478c4.449-1.555,6.794-6.422,5.239-10.871
			c-15.67-44.36-57.618-74.012-104.665-73.984C194.601,196.303,144.964,245.999,145,307.266
			c0.036,61.267,49.733,110.904,111,110.867c46.999-0.028,88.879-29.669,104.533-73.984c0.313-0.894,0.474-1.835,0.478-2.782
			C361.03,336.654,357.225,332.819,352.512,332.8z M255.864,401.067c-51.841-0.037-93.836-42.093-93.799-93.935
			c0.037-51.841,42.093-93.836,93.935-93.799c35.252,0.025,67.518,19.8,83.541,51.2h-15.275c-9.426,0-17.067,7.641-17.067,17.067
			v51.2c0,9.426,7.641,17.067,17.067,17.067h15.275C323.495,381.31,291.165,401.092,255.864,401.067z" fill="#ff9c27"/>
	</g>
</g>
<g>
	<g>
		<path class="blink" d="M128,460.8H93.867c-4.713,0-8.533,3.82-8.533,8.533c0,4.713,3.82,8.533,8.533,8.533H128c4.713,0,8.533-3.82,8.533-8.533
			C136.533,464.62,132.713,460.8,128,460.8z" fill="#ff9c27"/>
	</g>
</g>
<g>
	<g>
		<path class="blink" d="M392.533,34.133c-18.851,0-34.133,15.282-34.133,34.133s15.282,34.133,34.133,34.133s34.133-15.282,34.133-34.133
			S411.385,34.133,392.533,34.133z M392.533,85.333c-9.426,0-17.067-7.641-17.067-17.067S383.108,51.2,392.533,51.2
			c9.426,0,17.067,7.641,17.067,17.067C409.6,77.693,401.959,85.333,392.533,85.333z" fill="#ff9c27"/>
	</g>
</g>
<g>
	<g>
		<path class="blink" d="M307.2,34.133c-18.851,0-34.133,15.282-34.133,34.133S288.349,102.4,307.2,102.4s34.133-15.282,34.133-34.133
			C341.333,49.416,326.051,34.133,307.2,34.133z M307.2,85.333c-9.426,0-17.067-7.641-17.067-17.067S297.774,51.2,307.2,51.2
			s17.067,7.641,17.067,17.067C324.267,77.693,316.626,85.333,307.2,85.333z" fill="#ff9c27"/>
	</g>
</g>
<g>
	<g>
		<path class="blink" d="M204.8,8.533c-4.713,0-8.533,3.82-8.533,8.533V128c0,4.713,3.82,8.533,8.533,8.533c4.713,0,8.533-3.82,8.533-8.533V17.067
			C213.333,12.354,209.513,8.533,204.8,8.533z" fill="#ff9c27"/>
	</g>
</g>
<g>
	<g>
		<path class="blink" d="M170.667,59.733c-4.713,0-8.533,3.82-8.533,8.533v17.067H102.4V68.267c0-4.713-3.82-8.533-8.533-8.533
			s-8.533,3.82-8.533,8.533v17.067c0,9.426,7.641,17.067,17.067,17.067h59.733c9.426,0,17.067-7.641,17.067-17.067V68.267
			C179.2,63.554,175.38,59.733,170.667,59.733z" fill="#ff9c27"/>
	</g>
</g>
<g>
	<g>
		<path class="blink" d="M317.525,301.653c-6.9-1.472-13.936-2.215-20.992-2.219c-17.489-0.289-34.685,4.514-49.493,13.824
			c-12.02,7.478-25.954,11.303-40.107,11.008c-14.124,0.278-28.026-3.546-40.021-11.008c-3.935-2.616-9.246-1.546-11.861,2.389
			c-2.616,3.935-1.546,9.246,2.389,11.861c14.81,9.305,32.005,14.108,49.493,13.824c17.59,0.495,34.941-4.162,49.92-13.397
			c11.995-7.462,25.897-11.286,40.021-11.008c5.735,0.011,11.454,0.612,17.067,1.792c4.713,0.99,9.336-2.029,10.325-6.741
			C325.255,307.266,322.238,302.643,317.525,301.653z" fill="#ff9c27"/>
	</g>
</g>
</svg>
