<?xml version="1.0" encoding="iso-8859-1"?>
<svg version="1.1" id="Capa_1" xmlns="http://www.w3.org/2000/svg" xmlns:xlink="http://www.w3.org/1999/xlink" x="0px" y="0px"
	 viewBox="0 0 60.895 60.895" style="enable-background:new 0 0 60.895 60.895;" xml:space="preserve">
<g>
	<path d="M50.347,36.341c2.891,0,5.234,2.344,5.234,5.234s-2.344,5.234-5.234,5.234s-5.234-2.344-5.234-5.234
		S47.457,36.341,50.347,36.341z M29.021,35.77l-4.754-4.751l1.614-1.616l4.754,4.752L29.021,35.77z M60.599,50.53
		c-1.36-2.659-2.725-5.32-4.086-7.98c-0.075,2.133-1.235,3.988-2.948,5.034c0.298,0.583,0.596,1.165,0.894,1.746
		c-2.623,0-5.246,0-7.869,0c0.02-0.329,0.004-0.657-0.028-0.984c0.112-0.668-0.019-1.396-0.524-2.05
		c-0.195-0.255-0.404-0.496-0.605-0.745c-0.035-0.041-0.067-0.083-0.104-0.124c-3.288-3.994-7.251-7.309-11.69-9.984
		c-2.729-1.645-5.202,2.617-2.483,4.254c2.028,1.228,3.925,2.601,5.69,4.109l-14.931,0.015c-1.528-1.381-3.057-2.76-4.584-4.143
		c-0.944-0.854-2.566-1.048-3.483,0c-2.396,2.735-4.79,5.477-7.184,8.209c-0.394,0.45-0.587,0.938-0.632,1.422
		c-1.216,0-2.432,0-3.649,0c-3.177,0-3.177,4.928,0,4.928c6.244,0,12.486,0,18.728,0v0.022l20.393,0.013
		c0.121,0,0.235-0.013,0.354-0.018c5.45,0,10.903,0,16.354,0c0.041,0.001,0.078,0.001,0.113,0c0.043,0,0.09,0,0.133,0
		c1.248,0,1.998-0.762,2.268-1.688C60.963,51.972,60.976,51.264,60.599,50.53z M11.949,49.31c1.28-1.463,2.56-2.926,3.841-4.389
		c1.473,1.33,2.945,2.659,4.417,3.989c0.193,0.174,0.394,0.298,0.597,0.399C17.852,49.31,14.901,49.31,11.949,49.31z M11.655,24.733
		H8.883v1.54H22.43v-1.54h-2.771V23h9.544V6.622H3.034v16.377h8.621C11.655,22.999,11.655,24.733,11.655,24.733z M17.811,23.809
		H13.5v-0.81h4.311V23.809z M11.654,21.152H4.88V8.469h22.476v12.683h-7.697C19.659,21.152,11.654,21.152,11.654,21.152z" fill="#ff9c27"/>
</g>
</svg>
