<?xml version="1.0" encoding="iso-8859-1"?>
<!-- Generator: Adobe Illustrator 19.0.0, SVG Export Plug-In . SVG Version: 6.00 Build 0)  -->
<svg version="1.1" id="Capa_1" xmlns="http://www.w3.org/2000/svg" xmlns:xlink="http://www.w3.org/1999/xlink" x="0px" y="0px"
	 viewBox="0 0 488.001 488.001" style="enable-background:new 0 0 488.001 488.001;" xml:space="preserve">
  <style type="text/css">
    <![CDATA[
    .blink { animation: attention 1.5s steps(1) infinite }
    @keyframes attention {
      0%  {opacity: 0;}
      50%  {opacity: 1;}
     100%  {opacity: 0;}
    .noblink { opacity: 1; }
    ]]>
  </style>
<g>
	<g>
		<path class="noblink" d="M462.6,214.404l-39.2-17.9l-34.6-55.2c-10-16-27.6-25.7-46.5-25.6H194.9c-17.1,0-33.3,7.9-43.7,21.5l-44.7,58.5
			l-74.5,20.4c-18.9,5.2-32,22.5-32,42.1v28.5c0,24.1,19.2,44,43.3,44h6.4c7.7,29.7,38,47.5,67.7,39.8c19.5-5.1,34.8-20.3,39.8-39.8
			h168c7.7,29.7,38,47.5,67.7,39.8c19.5-5.1,34.8-20.3,39.8-39.8h12c24.1,0,43.3-19.9,43.3-44v-32.5
			C488.1,237.104,478.1,221.504,462.6,214.404z M103.4,352.104c-19.6,0-35.5-15.9-35.5-35.5c0-19.6,15.9-35.5,35.5-35.5
			c19.6,0,35.5,15.9,35.5,35.5C139,336.104,123.1,352.004,103.4,352.104z M378.9,352.104c-19.6,0-35.5-15.9-35.5-35.5
			c0-19.6,15.9-35.5,35.5-35.5s35.5,15.9,35.5,35.5C414.5,336.104,398.6,352.004,378.9,352.104z M444.7,310.704h-10.6
			c-3.3-30.5-30.8-52.5-61.3-49.1c-25.9,2.8-46.3,23.3-49.1,49.1H158.6c-3.3-30.5-30.8-52.5-61.3-49.1
			c-25.9,2.8-46.3,23.3-49.1,49.1h-5c-13.1,0-23.3-10.9-23.3-24v-28.5c-0.1-10.7,7-20,17.3-22.9l77.9-21.3c2.1-0.6,4-1.8,5.3-3.6
			l46.6-61.1c6.7-8.6,17-13.6,27.9-13.6h147.4c12-0.1,23.3,6,29.6,16.2l36.2,57.8c1,1.7,2.6,3,4.3,3.8l41.8,19.1
			c8.4,3.9,13.8,12.3,13.7,21.6v32.5h0.1C468,299.804,457.8,310.704,444.7,310.704z" fill="#ff9c27"/>
	</g>
</g>
</svg>
