<svg height="480pt" viewBox="0 0 480 480" width="480pt" xmlns="http://www.w3.org/2000/svg">
  <path d="m88 448c2.425781 0 4.722656-1.105469 6.238281-3 3.363281-4.160156 81.761719-102.535156 81.761719-149 0-48.601562-39.398438-88-88-88s-88 39.398438-88 88c0 46.464844 78.398438 144.800781 81.761719 149 1.515625 1.894531 3.8125 3 6.238281 3zm0-224c39.746094.042969 71.957031 32.253906 72 72 0 31.039062-47.289062 98.910156-72 131.03125-24.710938-32.109375-72-99.976562-72-131.03125.042969-39.746094 32.253906-71.957031 72-72zm0 0" fill="#ff9c27"/>
  <path d="m120 288c0-17.671875-14.328125-32-32-32s-32 14.328125-32 32 14.328125 32 32 32 32-14.328125 32-32zm-48 0c0-8.835938 7.164062-16 16-16s16 7.164062 16 16-7.164062 16-16 16-16-7.164062-16-16zm0 0" fill="#ff9c27"/>
  <path d="m416 168c2.332031 0 4.542969-1.015625 6.0625-2.785156 5.9375-6.886719 57.9375-68.269532 57.9375-101.214844 0-35.347656-28.652344-64-64-64s-64 28.652344-64 64c0 32.945312 52 94.328125 57.9375 101.214844 1.519531 1.769531 3.730469 2.785156 6.0625 2.785156zm0-152c26.5.027344 47.972656 21.5 48 48 0 20.273438-30.542969 62.046875-48 83.511719-17.464844-21.464844-48-63.199219-48-83.511719.027344-26.5 21.5-47.972656 48-48zm0 0" fill="#ff9c27"/>
  <path d="m440 56c0-13.253906-10.746094-24-24-24s-24 10.746094-24 24 10.746094 24 24 24 24-10.746094 24-24zm-32 0c0-4.417969 3.582031-8 8-8s8 3.582031 8 8-3.582031 8-8 8-8-3.582031-8-8zm0 0" fill="#ff9c27"/>
  <path d="m408 200h8c4.417969 0 8-3.582031 8-8s-3.582031-8-8-8h-8c-4.417969 0-8 3.582031-8 8s3.582031 8 8 8zm0 0" fill="#ff9c27"/>
  <path d="m304 248h16.175781c4.417969 0 8-3.582031 8-8s-3.582031-8-8-8h-16.304687c-2.113282.003906-4.140625.851562-5.628906 2.351562-1.488282 1.5-2.320313 3.535157-2.304688 5.648438.027344 4.429688 3.632812 8.003906 8.0625 8zm0 0" fill="#ff9c27"/>
  <path d="m393.6875 240c0 4.417969 3.582031 8 8 8h16.296875c4.417969 0 8-3.582031 8-8s-3.582031-8-8-8h-16.296875c-4.417969 0-8 3.582031-8 8zm0 0" fill="#ff9c27"/>
  <path d="m359.097656 200h16.300782c4.417968 0 8-3.582031 8-8s-3.582032-8-8-8h-16.300782c-4.421875 0-8 3.582031-8 8s3.578125 8 8 8zm0 0" fill="#ff9c27"/>
  <path d="m145.71875 464h-16.304688c-4.417968 0-8 3.582031-8 8s3.582032 8 8 8h16.304688c4.417969 0 8-3.582031 8-8s-3.582031-8-8-8zm0 0" fill="#ff9c27"/>
  <path d="m280.503906 228.960938c.558594 0 1.113282-.058594 1.65625-.175782 4.320313-.910156 7.085938-5.144531 6.183594-9.464844-.226562-1.09375-.339844-2.203124-.34375-3.320312-.003906-2.53125.59375-5.023438 1.742188-7.28125 2.003906-3.9375.4375-8.753906-3.503907-10.757812-3.9375-2.003907-8.753906-.4375-10.757812 3.503906-3.316407 6.511718-4.300781 13.96875-2.792969 21.121094.769531 3.703124 4.03125 6.367187 7.816406 6.375zm0 0" fill="#ff9c27"/>
  <path d="m352.800781 248h16.304688c4.417969 0 8-3.582031 8-8s-3.582031-8-8-8h-16.304688c-4.417969 0-8 3.582031-8 8s3.582031 8 8 8zm0 0" fill="#ff9c27"/>
  <path d="m310.191406 200h16.304688c4.417968 0 8-3.582031 8-8s-3.582032-8-8-8h-16.304688c-4.417968 0-8 3.582031-8 8s3.582032 8 8 8zm0 0" fill="#ff9c27"/>
  <path d="m231.136719 339.015625c.632812.164063 1.289062.242187 1.941406.242187 3.671875-.007812 6.867187-2.507812 7.753906-6.066406 1.035157-4.113281 2.984375-7.941406 5.703125-11.199218 1.921875-2.179688 2.507813-5.226563 1.539063-7.960938-.96875-2.738281-3.347657-4.734375-6.210938-5.21875-2.859375-.480469-5.761719.625-7.574219 2.890625-4.285156 5.113281-7.355468 11.128906-8.976562 17.601563-.519531 2.058593-.195312 4.242187.898438 6.0625 1.089843 1.824218 2.863281 3.136718 4.925781 3.648437zm0 0" fill="#ff9c27"/>
  <path d="m389.183594 463.664062c-1.71875.226563-3.449219.339844-5.183594.335938h-10.070312c-4.421876 0-8 3.582031-8 8s3.578124 8 8 8h10.070312c2.40625 0 4.8125-.15625 7.199219-.464844 4.382812-.566406 7.476562-4.578125 6.914062-8.960937-.566406-4.382813-4.578125-7.476563-8.960937-6.910157zm0 0" fill="#ff9c27"/>
  <path d="m400.328125 370.398438c-5.292969-1.601563-10.796875-2.410157-16.328125-2.398438h-2.097656c-4.417969 0-8 3.582031-8 8s3.582031 8 8 8h2.097656c3.953125 0 7.886719.582031 11.671875 1.726562.753906.234376 1.539063.351563 2.328125.351563 3.964844.003906 7.335938-2.898437 7.921875-6.820313.582031-3.925781-1.796875-7.683593-5.59375-8.832031zm0 0" fill="#ff9c27"/>
  <path d="m383.265625 312c4.417969 0 8-3.582031 8-8s-3.582031-8-8-8h-16.296875c-4.417969 0-8 3.582031-8 8s3.582031 8 8 8zm0 0" fill="#ff9c27"/>
  <path d="m431.070312 436.390625c-4.023437-1.8125-8.757812-.023437-10.574218 4-1.863282 4.136719-4.421875 7.925781-7.558594 11.203125-2.054688 2.050781-2.835938 5.050781-2.042969 7.839844.792969 2.792968 3.035157 4.9375 5.855469 5.601562 2.824219.667969 5.789062-.246094 7.746094-2.386718 4.398437-4.585938 7.984375-9.894532 10.59375-15.6875 1.804687-4.027344.007812-8.757813-4.019532-10.570313zm0 0" fill="#ff9c27"/>
  <path d="m472.96875 273.40625c-2.035156-.601562-4.226562-.371094-6.09375.644531-1.863281 1.015625-3.25 2.730469-3.851562 4.765625-1.175782 3.921875-3.324219 7.484375-6.246094 10.351563-3.160156 3.09375-3.214844 8.160156-.121094 11.320312 3.09375 3.160157 8.160156 3.210938 11.320312.121094 4.875-4.777344 8.453126-10.714844 10.398438-17.257813.605469-2.035156.371094-4.226562-.640625-6.09375-1.015625-1.863281-2.730469-3.25-4.765625-3.851562zm0 0" fill="#ff9c27"/>
  <path d="m463.839844 258.640625c3.160156.003906 6.023437-1.855469 7.3125-4.738281 1.285156-2.882813.757812-6.253906-1.351563-8.605469-4.566406-5.078125-10.347656-8.910156-16.800781-11.136719-4.179688-1.4375-8.730469.789063-10.167969 4.96875-1.4375 4.179688.789063 8.730469 4.96875 10.167969 3.875 1.332031 7.34375 3.632813 10.078125 6.6875 1.519532 1.691406 3.6875 2.65625 5.960938 2.65625zm0 0" fill="#ff9c27"/>
  <path d="m349.304688 368h-16.296876c-4.417968 0-8 3.582031-8 8s3.582032 8 8 8h16.296876c4.417968 0 8-3.582031 8-8s-3.582032-8-8-8zm0 0" fill="#ff9c27"/>
  <path d="m432.167969 296h-16.304688c-4.417969 0-8 3.582031-8 8s3.582031 8 8 8h16.304688c4.417969 0 8-3.582031 8-8s-3.582031-8-8-8zm0 0" fill="#ff9c27"/>
  <path d="m194.617188 464h-16.296876c-4.417968 0-8 3.582031-8 8s3.582032 8 8 8h16.296876c4.417968 0 8-3.582031 8-8s-3.582032-8-8-8zm0 0" fill="#ff9c27"/>
  <path d="m430.34375 392.558594c-2.496094-3.652344-7.480469-4.589844-11.136719-2.09375-3.652343 2.496094-4.589843 7.480468-2.09375 11.136718 2.554688 3.742188 4.449219 7.894532 5.597657 12.277344.625 2.863282 2.765624 5.15625 5.582031 5.976563 2.8125.820312 5.847656.035156 7.914062-2.046875 2.0625-2.078125 2.824219-5.121094 1.984375-7.929688-1.601562-6.179687-4.253906-12.039062-7.847656-17.320312zm0 0" fill="#ff9c27"/>
  <path d="m255.617188 365.128906c-3.800782-1.894531-7.125-4.613281-9.738282-7.960937-2.710937-3.492188-7.738281-4.121094-11.226562-1.410157-3.492188 2.707032-4.121094 7.734376-1.414063 11.226563 4.097657 5.257813 9.324219 9.527344 15.296875 12.488281 3.941406 1.839844 8.632813.191406 10.558594-3.710937 1.925781-3.898438.378906-8.625-3.476562-10.632813zm0 0" fill="#ff9c27"/>
  <path d="m243.519531 464h-16.320312c-4.417969 0-8 3.582031-8 8s3.582031 8 8 8h16.320312c4.417969 0 8-3.582031 8-8s-3.582031-8-8-8zm0 0" fill="#ff9c27"/>
  <path d="m341.328125 464h-16.296875c-4.417969 0-8 3.582031-8 8s3.582031 8 8 8h16.296875c4.417969 0 8-3.582031 8-8s-3.582031-8-8-8zm0 0" fill="#ff9c27"/>
  <path d="m285.464844 312c4.417968 0 8-3.582031 8-8s-3.582032-8-8-8h-16.296875c-4.417969 0-8 3.582031-8 8s3.582031 8 8 8zm0 0" fill="#ff9c27"/>
  <path d="m334.398438 312c4.417968 0 8-3.582031 8-8s-3.582032-8-8-8h-16.335938c-4.417969 0-8 3.582031-8 8s3.582031 8 8 8zm0 0" fill="#ff9c27"/>
  <path d="m300.40625 368h-16.300781c-4.417969 0-8 3.582031-8 8s3.582031 8 8 8h16.300781c4.421875 0 8-3.582031 8-8s-3.578125-8-8-8zm0 0" fill="#ff9c27"/>
  <path d="m292.433594 464h-16.304688c-4.417968 0-8 3.582031-8 8s3.582032 8 8 8h16.304688c4.417968 0 8-3.582031 8-8s-3.582032-8-8-8zm0 0" fill="#ff9c27"/>
  <path d="m96 464h-8c-4.417969 0-8 3.582031-8 8s3.582031 8 8 8h8c4.417969 0 8-3.582031 8-8s-3.582031-8-8-8zm0 0" fill="#ff9c27"/>
</svg>
